<svg xmlns="http://www.w3.org/2000/svg" width="60" height="31" viewBox="0 0 60 31">
    <g fill="none" fill-rule="evenodd">
        <g fill="#FFF" fill-rule="nonzero">
            <path d="M30.536 9.998a.234.234 0 0 1-.075.17.241.241 0 0 1-.175.074.324.324 0 0 1-.195-.079l-2.524-2.026V9.97a.24.24 0 0 1-.073.196.273.273 0 0 1-.206.075.303.303 0 0 1-.21-.07.254.254 0 0 1-.078-.197V4.268a.255.255 0 0 1 .079-.198.303.303 0 0 1 .21-.07.273.273 0 0 1 .205.076.24.24 0 0 1 .073.196v3.647l2.31-1.957a.324.324 0 0 1 .195-.079c.149 0 .269.114.269.254a.244.244 0 0 1-.111.21l-2.004 1.668 2.19 1.765a.29.29 0 0 1 .12.218zM34.865 5.897a.28.28 0 0 1 .184.07c.052.04.083.1.083.164 0 .039-.01.077-.028.112l-2.603 5.383a.249.249 0 0 1-.239.148.284.284 0 0 1-.18-.06.192.192 0 0 1-.077-.156.22.22 0 0 1 .028-.104l.653-1.345-1.887-3.869a.22.22 0 0 1-.028-.104c0-.07.037-.136.097-.178a.336.336 0 0 1 .208-.073.237.237 0 0 1 .238.156l1.661 3.505 1.661-3.496a.248.248 0 0 1 .23-.153zM39.36 6.125c.308.185.554.45.706.762.175.359.26.75.251 1.144.01.4-.076.797-.25 1.162a1.847 1.847 0 0 1-.708.775 2 2 0 0 1-1.05.274c-.33.008-.656-.069-.944-.222a1.425 1.425 0 0 1-.604-.648v.575a.264.264 0 0 1-.074.196.278.278 0 0 1-.205.074.282.282 0 0 1-.21-.074.245.245 0 0 1-.079-.196V4.27a.245.245 0 0 1 .08-.197.282.282 0 0 1 .209-.073.278.278 0 0 1 .205.073.265.265 0 0 1 .074.197v2.455c.123-.27.335-.498.604-.648.288-.153.614-.23.945-.222.37-.007.734.086 1.05.269zm-.024 3.185c.264-.307.396-.733.396-1.276 0-.544-.132-.966-.396-1.267-.264-.299-.634-.448-1.111-.448s-.84.151-1.088.453c-.255.302-.382.727-.381 1.276 0 .55.13.975.386 1.277.257.3.622.449 1.092.448.471 0 .838-.155 1.102-.463zM45.04 9.348c.04.042.061.096.06.151 0 .13-.105.254-.315.372a2.877 2.877 0 0 1-1.416.372c-.689 0-1.232-.193-1.63-.58-.397-.386-.596-.916-.596-1.59a2.393 2.393 0 0 1 .266-1.146c.164-.318.423-.585.745-.77.334-.185.716-.279 1.104-.272.584 0 1.045.174 1.383.523.339.348.508.828.508 1.44a.31.31 0 0 1-.075.23.331.331 0 0 1-.242.072h-3.104c.019.53.168.934.446 1.21.28.277.674.415 1.184.415a1.96 1.96 0 0 0 .67-.097c.2-.075.392-.163.577-.263a.688.688 0 0 1 .29-.13.19.19 0 0 1 .144.063zm-2.828-2.65c-.26.253-.416.608-.465 1.063h2.878c-.012-.461-.137-.817-.373-1.068-.236-.251-.568-.377-.996-.377-.39-.016-.77.123-1.044.382zM48.727 5.925a.197.197 0 0 1 .076.174c0 .146-.095.227-.285.244l-.284.027c-.45.04-.782.189-1 .445a1.342 1.342 0 0 0-.327.898v2.263a.259.259 0 0 1-.076.197.297.297 0 0 1-.208.07.314.314 0 0 1-.214-.07.25.25 0 0 1-.08-.197V6.152a.251.251 0 0 1 .08-.196.314.314 0 0 1 .214-.07.283.283 0 0 1 .199.07.248.248 0 0 1 .076.196v.567c.258-.5.738-.773 1.44-.82l.132-.008a.434.434 0 0 1 .257.034zM49.277 10.126a.426.426 0 0 1 0-.591.405.405 0 0 1 .299-.116.397.397 0 0 1 .287.116c.159.167.159.425 0 .591a.397.397 0 0 1-.287.117.405.405 0 0 1-.3-.117zM30.771 14.583v2.457a.262.262 0 0 1-.075.196.282.282 0 0 1-.211.073.286.286 0 0 1-.211-.073.244.244 0 0 1-.08-.196v-2.423c0-.417-.09-.72-.271-.912-.181-.192-.468-.287-.861-.286a1.518 1.518 0 0 0-1.082.382c-.272.255-.408.596-.408 1.025v2.214a.262.262 0 0 1-.075.196.281.281 0 0 1-.206.073.286.286 0 0 1-.21-.073.244.244 0 0 1-.08-.196v-3.806a.244.244 0 0 1 .08-.195.286.286 0 0 1 .21-.074.278.278 0 0 1 .197.07c.053.052.08.123.075.196v.546c.135-.258.352-.472.622-.612.288-.146.613-.22.941-.213 1.097-.001 1.645.542 1.645 1.63zM35.85 16.415c.04.042.061.096.06.152 0 .13-.104.254-.315.371a2.876 2.876 0 0 1-1.415.372c-.69 0-1.233-.193-1.63-.58-.398-.386-.597-.916-.6-1.59a2.394 2.394 0 0 1 .266-1.146c.164-.317.423-.585.746-.77.333-.184.715-.279 1.103-.272.584 0 1.045.175 1.383.523.339.349.508.83.508 1.44a.31.31 0 0 1-.075.23.331.331 0 0 1-.241.073h-3.102c.019.53.168.935.447 1.211s.673.415 1.183.417c.228.006.456-.027.67-.098a4.63 4.63 0 0 0 .578-.263.688.688 0 0 1 .289-.13.191.191 0 0 1 .145.06zm-2.827-2.65c-.261.254-.416.608-.466 1.064h2.879c-.013-.462-.137-.818-.373-1.069-.237-.25-.569-.376-.997-.376-.39-.017-.77.122-1.043.381zM39.375 17.088a.194.194 0 0 1-.084.166.429.429 0 0 1-.27.052l-.259-.017c-.47-.03-.82-.165-1.048-.408-.227-.242-.34-.612-.338-1.108v-2.33h-.706a.258.258 0 0 1-.176-.058.192.192 0 0 1-.065-.153.206.206 0 0 1 .065-.158.247.247 0 0 1 .176-.062h.706v-1.087a.264.264 0 0 1 .074-.198.286.286 0 0 1 .21-.07.303.303 0 0 1 .21.07.256.256 0 0 1 .078.198v1.087h1.123a.26.26 0 0 1 .185.062c.044.042.068.099.065.158a.192.192 0 0 1-.065.153.273.273 0 0 1-.185.058h-1.126V15.8c0 .362.074.62.223.775.149.154.38.243.697.267l.25.017c.173.018.26.094.26.229zM46.638 12.97c.072-.001.142.024.196.07a.218.218 0 0 1 .084.174.504.504 0 0 1-.02.088l-1.559 3.807a.29.29 0 0 1-.126.149.376.376 0 0 1-.383 0 .288.288 0 0 1-.126-.149l-1.382-3.336-1.37 3.336a.29.29 0 0 1-.127.149.376.376 0 0 1-.382 0 .289.289 0 0 1-.127-.149l-1.568-3.8a.267.267 0 0 1-.02-.087.23.23 0 0 1 .099-.183.328.328 0 0 1 .21-.08.241.241 0 0 1 .243.167l1.363 3.459 1.41-3.432a.316.316 0 0 1 .29-.201.308.308 0 0 1 .29.2l1.39 3.428 1.382-3.449a.236.236 0 0 1 .233-.161zM48.61 17.042a1.842 1.842 0 0 1-.727-.761 2.692 2.692 0 0 1 0-2.3c.159-.314.412-.579.727-.76a2.306 2.306 0 0 1 2.16 0c.317.18.57.445.727.76a2.737 2.737 0 0 1 0 2.3c-.157.316-.41.58-.728.76-.669.359-1.49.359-2.159 0zm2.169-.64c.257-.294.386-.717.386-1.268 0-.542-.13-.964-.391-1.268a1.354 1.354 0 0 0-1.082-.454c-.467 0-.83.152-1.087.454-.258.302-.386.725-.386 1.268 0 .553.125.976.377 1.268.251.292.613.44 1.087.445.473 0 .838-.148 1.096-.443v-.002zM55.445 12.995a.197.197 0 0 1 .075.174c0 .146-.094.227-.283.244l-.284.027c-.448.04-.78.189-.997.444a1.342 1.342 0 0 0-.327.898v2.261a.259.259 0 0 1-.075.197.296.296 0 0 1-.214.07.313.313 0 0 1-.213-.07.25.25 0 0 1-.08-.197V13.22a.251.251 0 0 1 .08-.197.313.313 0 0 1 .213-.07.282.282 0 0 1 .199.07.248.248 0 0 1 .075.197v.566c.258-.5.737-.773 1.437-.82l.132-.008a.431.431 0 0 1 .262.037zM59.646 17.065a.235.235 0 0 1-.074.17.241.241 0 0 1-.176.075.324.324 0 0 1-.194-.08l-2.525-2.027v1.835a.24.24 0 0 1-.073.196.273.273 0 0 1-.205.076.303.303 0 0 1-.21-.07.254.254 0 0 1-.078-.198v-5.707a.255.255 0 0 1 .079-.197.303.303 0 0 1 .209-.07.273.273 0 0 1 .205.075.24.24 0 0 1 .073.196v3.648l2.31-1.957a.324.324 0 0 1 .196-.079c.071 0 .14.027.19.074.05.048.079.112.079.18a.245.245 0 0 1-.111.21l-2.005 1.667 2.19 1.765a.29.29 0 0 1 .12.218z"/>
        </g>
        <g fill-rule="nonzero" stroke="#FFF" stroke-width=".5" transform="translate(1 1)">
            <path fill="#177466" d="M16.981 21.236l-9.5-9.407.15 16.747z"/>
            <path fill="#4CA888" d="M2.237 21.086L7.6 28.225 7.335.468.713 7.384z"/>
            <path fill="#B4DCCC" d="M16.992 21.315l.345-13.937-9.856 4.494z"/>
            <path fill="#EBF7EE" d="M7.463 11.829l9.756-4.485L7.362.468z"/>
            <ellipse cx="7.362" cy=".703" fill="#404041" rx="1" ry="1" transform="rotate(-88.69 7.362 .703)"/>
            <ellipse cx="17.337" cy="7.378" fill="#404041" rx="1" ry="1" transform="rotate(-88.69 17.337 7.378)"/>
            <ellipse cx=".713" cy="7.612" fill="#404041" rx="1" ry="1" transform="rotate(-88.69 .713 7.613)"/>
            <ellipse cx="2.256" cy="21.315" fill="#404041" rx="1" ry="1" transform="rotate(-88.69 2.256 21.315)"/>
            <ellipse cx="7.719" cy="28.225" fill="#404041" rx="1" ry="1" transform="rotate(-88.69 7.719 28.225)"/>
            <ellipse cx="16.863" cy="21.432" fill="#404041" rx="1" ry="1" transform="rotate(-88.69 16.863 21.432)"/>
            <ellipse cx="7.362" cy="12.063" fill="#404041" rx="1" ry="1" transform="rotate(-88.69 7.363 12.063)"/>
        </g>
    </g>
</svg>
